<?xml version="1.0" standalone="no"?>
<!DOCTYPE svg PUBLIC "-//W3C//DTD SVG 1.1//EN" "http://www.w3.org/Graphics/SVG/1.1/DTD/svg11.dtd">
<svg width="256px" height="256px" version="1.1" xmlns="http://www.w3.org/2000/svg" xmlns:xlink="http://www.w3.org/1999/xlink" xml:space="preserve" style="fill-rule:evenodd;clip-rule:evenodd;stroke-linejoin:round;stroke-miterlimit:1.41421;">
    <g>
        <path d="M237.691,127.629C237.691,188.197 188.591,237.297 128.023,237.297C67.455,237.297 18.355,188.197 18.355,127.629C18.355,67.0612 67.455,17.9612 128.023,17.9612C188.591,17.9612 237.691,67.0612 237.691,127.629Z" style="fill:url(#tag1);"/>
        <path d="M228.009,128.089C228.009,183.056 183.449,227.615 128.482,227.615C73.5156,227.615 28.9562,183.056 28.9562,128.089C28.9562,73.1218 73.5156,28.5624 128.482,28.5624C183.449,28.5624 228.009,73.1218 228.009,128.089Z" style="fill:url(#tag2);"/>
        <g>
            <path d="M202.488,128.421C202.488,136.012 199.474,142.933 194.563,147.957C194.451,148.068 194.116,148.403 194.116,148.403C190.209,152.199 186.302,155.883 182.172,159.343C176.813,163.808 171.344,167.939 165.65,171.846C159.734,175.864 153.594,179.548 147.343,182.786C144.887,177.874 146.561,171.846 151.25,168.943C151.473,168.832 151.585,168.72 151.808,168.608C154.487,167.046 156.832,165.036 158.952,162.58C161.073,160.124 162.636,157.334 163.753,154.431C164.311,152.868 164.757,151.194 165.092,149.631C165.092,149.631 165.092,149.408 165.204,149.296C165.315,148.068 164.534,146.84 163.306,146.617L163.083,146.617C162.413,146.506 161.743,146.394 161.073,146.394C161.967,143.268 162.301,140.143 162.078,137.129C161.855,133.78 161.073,130.542 159.734,127.528C159.064,126.077 158.394,124.738 157.501,123.398C159.511,124.179 161.632,124.514 163.753,124.514C163.864,124.514 163.864,124.514 163.976,124.514C166.32,124.514 168.664,123.621 170.674,122.058C173.241,119.937 174.469,116.923 174.469,113.909C174.469,109.221 173.353,104.756 171.232,100.96C168.888,96.495 165.427,92.8112 161.297,90.132C156.943,87.4529 151.92,85.8901 146.45,85.8901C143.101,85.8901 139.864,86.4482 136.85,87.5645C133.724,88.6808 130.822,90.3553 128.366,92.4763C125.91,94.4856 123.9,96.9415 122.226,99.7323C122.003,99.3974 121.668,99.1741 121.445,98.9509C120.217,97.9462 118.654,97.388 117.203,97.388C117.203,87.7878 109.5,80.0853 99.8998,80.0853C90.2996,80.0853 82.5971,87.7878 82.5971,97.388C82.5971,97.4997 82.5971,97.6113 82.5971,97.7229C82.5971,101.965 83.6018,105.872 85.2762,109.444C86.9507,113.016 89.5182,116.254 92.5322,118.821L92.6438,118.933C94.2067,120.272 95.323,121.947 95.8811,123.845C96.9974,127.193 96.3277,131.101 93.8718,134.003C90.0763,138.58 83.2669,139.138 78.8016,135.342C77.3504,134.115 76.3458,132.663 75.7876,131.101C74.6713,132.887 73.7783,135.008 73.4434,137.24C72.3271,143.603 74.7829,149.743 79.3598,153.538C81.5924,155.436 84.3832,156.776 87.3972,157.334C93.0904,158.338 98.6719,156.441 102.579,152.645C103.807,158.785 106.933,164.478 112.068,168.832C119.435,174.971 120.328,185.911 114.189,193.279C110.84,197.186 106.151,199.307 101.351,199.419L100.458,199.419C95.8811,199.307 91.1926,198.079 86.9507,195.623C80.4761,191.939 76.1225,186.023 74.1131,179.325C74.0015,179.102 73.7783,178.097 73.6666,177.762C64.8478,144.273 65.406,110.56 73.7783,79.3039C73.7783,79.0806 73.8899,78.8573 73.8899,78.7457C75.7876,71.9362 80.2528,65.9082 86.839,62.1127C93.202,58.4289 100.346,57.5359 106.933,58.9871C107.602,59.2103 108.384,59.322 109.054,59.5452C140.087,68.0292 169.557,84.4389 194.005,108.774C194.116,108.886 194.451,109.221 194.451,109.221C199.363,113.909 202.488,120.719 202.488,128.421L202.488,128.421Z" style="fill:black;fill-opacity:0.207843;fill-rule:nonzero;"/>
        </g>
        <g>
            <path d="M201.488,126.421C201.488,134.012 198.474,140.933 193.563,145.957C193.451,146.068 193.116,146.403 193.116,146.403C189.209,150.199 185.302,153.883 181.172,157.343C175.813,161.808 170.344,165.939 164.65,169.846C158.734,173.864 152.594,177.548 146.343,180.786C143.887,175.874 145.561,169.846 150.25,166.943C150.473,166.832 150.585,166.72 150.808,166.608C153.487,165.046 155.832,163.036 157.952,160.58C160.073,158.124 161.636,155.334 162.753,152.431C163.311,150.868 163.757,149.194 164.092,147.631C164.092,147.631 164.092,147.408 164.204,147.296C164.315,146.068 163.534,144.84 162.306,144.617L162.083,144.617C161.413,144.506 160.743,144.394 160.073,144.394C160.967,141.268 161.301,138.143 161.078,135.129C160.855,131.78 160.073,128.542 158.734,125.528C158.064,124.077 157.394,122.738 156.501,121.398C158.511,122.179 160.632,122.514 162.753,122.514C162.864,122.514 162.864,122.514 162.976,122.514C165.32,122.514 167.664,121.621 169.674,120.058C172.241,117.937 173.469,114.923 173.469,111.909C173.469,107.221 172.353,102.756 170.232,98.9602C167.888,94.495 164.427,90.8112 160.297,88.132C155.943,85.4529 150.92,83.8901 145.45,83.8901C142.101,83.8901 138.864,84.4482 135.85,85.5645C132.724,86.6808 129.822,88.3553 127.366,90.4763C124.91,92.4856 122.9,94.9415 121.226,97.7323C121.003,97.3974 120.668,97.1741 120.445,96.9509C119.217,95.9462 117.654,95.388 116.203,95.388C116.203,85.7878 108.5,78.0853 98.8998,78.0853C89.2996,78.0853 81.5971,85.7878 81.5971,95.388C81.5971,95.4997 81.5971,95.6113 81.5971,95.7229C81.5971,99.9649 82.6018,103.872 84.2762,107.444C85.9507,111.016 88.5182,114.254 91.5322,116.821L91.6438,116.933C93.2067,118.272 94.323,119.947 94.8811,121.845C95.9974,125.193 95.3277,129.101 92.8718,132.003C89.0763,136.58 82.2669,137.138 77.8016,133.342C76.3504,132.115 75.3458,130.663 74.7876,129.101C73.6713,130.887 72.7783,133.008 72.4434,135.24C71.3271,141.603 73.7829,147.743 78.3598,151.538C80.5924,153.436 83.3832,154.776 86.3972,155.334C92.0904,156.338 97.6719,154.441 101.579,150.645C102.807,156.785 105.933,162.478 111.068,166.832C118.435,172.971 119.328,183.911 113.189,191.279C109.84,195.186 105.151,197.307 100.351,197.419L99.458,197.419C94.8811,197.307 90.1926,196.079 85.9507,193.623C79.4761,189.939 75.1225,184.023 73.1131,177.325C73.0015,177.102 72.7783,176.097 72.6666,175.762C63.8478,142.273 64.406,108.56 72.7783,77.3039C72.7783,77.0806 72.8899,76.8573 72.8899,76.7457C74.7876,69.9362 79.2528,63.9082 85.839,60.1127C92.202,56.4289 99.3464,55.5359 105.933,56.9871C106.602,57.2103 107.384,57.322 108.054,57.5452C139.087,66.0292 168.557,82.4389 193.005,106.774C193.116,106.886 193.451,107.221 193.451,107.221C198.363,111.909 201.488,118.719 201.488,126.421L201.488,126.421Z" style="fill:url(#tag3);fill-rule:nonzero;"/>
        </g>
    </g>
    <defs>
        <linearGradient id="tag1" x1="0" y1="0" x2="1" y2="0" gradientUnits="userSpaceOnUse" gradientTransform="matrix(6.21328e-14,219.336,-219.336,6.21328e-14,128.023,17.9612)"><stop offset="0%" style="stop-color:rgb(239,250,254);stop-opacity:1"/><stop offset="100%" style="stop-color:rgb(202,202,202);stop-opacity:1"/></linearGradient>
        <linearGradient id="tag2" x1="0" y1="0" x2="1" y2="0" gradientUnits="userSpaceOnUse" gradientTransform="matrix(5.63871e-14,199.053,-199.053,5.63871e-14,128.482,28.5624)"><stop offset="0%" style="stop-color:rgb(179,233,138);stop-opacity:1"/><stop offset="100%" style="stop-color:rgb(150,210,29);stop-opacity:1"/></linearGradient>
        <linearGradient id="tag3" x1="0" y1="0" x2="1" y2="0" gradientUnits="userSpaceOnUse" gradientTransform="matrix(1.06215e-14,173.462,-173.462,1.06215e-14,138.427,21.0305)"><stop offset="0%" style="stop-color:white;stop-opacity:1"/><stop offset="100%" style="stop-color:rgb(210,210,210);stop-opacity:1"/></linearGradient>
    </defs>
</svg>
